<svg clip-rule="evenodd" fill-rule="evenodd" height="512" image-rendering="optimizeQuality" shape-rendering="geometricPrecision" text-rendering="geometricPrecision" viewBox="0 0 1.70666 1.70666" width="512" xmlns="http://www.w3.org/2000/svg"><g id="Layer_x0020_1" fill-rule="nonzero"><path d="m.853331-.00000394c.366953 0 .664445.297492.664445.664445 0 .239488-.235217.529744-.440024.782472-.0641417.0791535-.130161.159146-.18863.242559-.0167244.0238661-.0521378.0223268-.0668937-.0021063-.0512992-.0715748-.116902-.151354-.18611-.235528-.207791-.252709-.447232-.543909-.447232-.787398 0-.366953.297492-.664445.664445-.664445zm0 .08c-.322791 0-.584445.261654-.584445.584445 0 .215291.229571.494488.428791.736776.057185.0695472.111949.136154.15852.197799.0470591-.0634449.10215-.131425.159681-.202417.19637-.242319.421898-.520622.421898-.732157 0-.322791-.261654-.584445-.584445-.584445z"/><path d="m.853331.338724c.179874 0 .325717.145843.325717.325717s-.145846.325713-.325717.325713c-.17987 0-.325717-.145839-.325717-.325713s.145843-.325717.325717-.325717zm-.245717.325717c0 .135713.110004.245713.245717.245713s.245717-.11.245717-.245713c0-.326461-.491433-.320469-.491433 0z"/></g></svg>